<svg aria-hidden="true" style="position: absolute; width: 0; height: 0; overflow: hidden;" version="1.1" xmlns="http://www.w3.org/2000/svg" xmlns:xlink="http://www.w3.org/1999/xlink">
<defs>
<symbol id="angular" viewBox="0 0 256 272" >
	<g>
		<path d="M0.0996108949,45.522179 L125.908171,0.697276265 L255.103502,44.7252918 L234.185214,211.175097 L125.908171,271.140856 L19.3245136,211.971984 L0.0996108949,45.522179 Z" fill="#E23237"></path>
		<path d="M255.103502,44.7252918 L125.908171,0.697276265 L125.908171,271.140856 L234.185214,211.274708 L255.103502,44.7252918 L255.103502,44.7252918 Z" fill="#B52E31"></path>
		<path d="M126.107393,32.27393 L126.107393,32.27393 L47.7136187,206.692607 L76.9992218,206.194553 L92.7377432,166.848249 L126.207004,166.848249 L126.306615,166.848249 L163.063035,166.848249 L180.29572,206.692607 L208.286381,207.190661 L126.107393,32.27393 L126.107393,32.27393 Z M126.306615,88.155642 L152.803113,143.5393 L127.402335,143.5393 L126.107393,143.5393 L102.997665,143.5393 L126.306615,88.155642 L126.306615,88.155642 Z" fill="#FFFFFF"></path>
	</g>
</symbol>

<symbol id="css" viewBox="0 0 256 361"  >
 <g>
    <path d="M127.843868,360.087912 L23.6617143,331.166242 L0.445186813,70.7657143 L255.554813,70.7657143 L232.31367,331.125451 L127.843868,360.087912 L127.843868,360.087912 Z" fill="#264DE4"></path>
    <path d="M212.416703,314.546637 L232.277802,92.0573187 L128,92.0573187 L128,337.950242 L212.416703,314.546637 L212.416703,314.546637 Z" fill="#2965F1"></path>
    <path d="M53.6685714,188.636132 L56.530989,220.572835 L128,220.572835 L128,188.636132 L53.6685714,188.636132 L53.6685714,188.636132 Z" fill="#EBEBEB"></path>
    <path d="M47.917011,123.994725 L50.8202198,155.932132 L128,155.932132 L128,123.994725 L47.917011,123.994725 L47.917011,123.994725 Z" fill="#EBEBEB"></path>
    <path d="M128,271.580132 L127.860044,271.617407 L92.2915165,262.013187 L90.0177582,236.54189 L57.957978,236.54189 L62.4323516,286.687648 L127.853011,304.848879 L128,304.808088 L128,271.580132 L128,271.580132 Z" fill="#EBEBEB"></path>
    <path d="M60.4835165,0 L99.1648352,0 L99.1648352,16.1758242 L76.6593407,16.1758242 L76.6593407,32.3516484 L99.1648352,32.3516484 L99.1648352,48.5274725 L60.4835165,48.5274725 L60.4835165,0 L60.4835165,0 Z" fill="#000000"></path>
    <path d="M106.901099,0 L145.582418,0 L145.582418,14.0659341 L123.076923,14.0659341 L123.076923,16.8791209 L145.582418,16.8791209 L145.582418,49.2307692 L106.901099,49.2307692 L106.901099,34.4615385 L129.406593,34.4615385 L129.406593,31.6483516 L106.901099,31.6483516 L106.901099,0 L106.901099,0 Z" fill="#000000"></path>
    <path d="M153.318681,0 L192,0 L192,14.0659341 L169.494505,14.0659341 L169.494505,16.8791209 L192,16.8791209 L192,49.2307692 L153.318681,49.2307692 L153.318681,34.4615385 L175.824176,34.4615385 L175.824176,31.6483516 L153.318681,31.6483516 L153.318681,0 L153.318681,0 Z" fill="#000000"></path>
    <path d="M202.126769,188.636132 L207.892396,123.994725 L127.889582,123.994725 L127.889582,155.932132 L172.892132,155.932132 L169.98611,188.636132 L127.889582,188.636132 L127.889582,220.572835 L167.216527,220.572835 L163.509451,261.992791 L127.889582,271.606857 L127.889582,304.833407 L193.362286,286.687648 L193.842637,281.291956 L201.347516,197.212132 L202.126769,188.636132 L202.126769,188.636132 Z" fill="#FFFFFF"></path>
  </g>
</symbol>

<symbol id="dotnet" viewBox="-0.23294661979148623 0 125.23294661979149 79.04777140278348" >
  <g fill="#621ee5">
    <path d="M6.02 40.25c-.32-.34-.71-.61-1.14-.8s-.89-.28-1.36-.28c-.47-.01-.93.09-1.36.27-.43.19-.82.46-1.14.8-.33.33-.59.72-.76 1.15-.17.44-.26.9-.26 1.36-.01.47.08.93.26 1.36s.44.82.77 1.15a3.339 3.339 0 0 0 2.5 1.05 3.456 3.456 0 0 0 2.5-1.05c.34-.32.6-.71.78-1.14s.27-.89.27-1.36-.09-.93-.27-1.36c-.19-.44-.45-.83-.79-1.15zM47.87 32.13c-.05 2.24.06 4.49.32 6.72h-.12c-.28-.55-.9-1.57-1.85-3.06L23.42 0H16.5v45.69h5.32V12.66c.06-2.09-.03-4.18-.25-6.27h.2c.38 1 .87 1.96 1.45 2.86l23.42 36.44h6.55V0h-5.32zM89.26 40.67h-18.8V24.84h16.45v-4.82H70.46V4.84h17.65V0h-23.1v45.69h24.22zM93.33 0v4.84h13.1v40.85h5.32V4.84H125V0zM41.19 57.05a10.04 10.04 0 0 0-3.52 2.37c-1.02 1.09-1.82 2.37-2.34 3.78s-.75 2.9-.69 4.39c-.1 2.76.86 5.46 2.7 7.52.92.97 2.04 1.72 3.28 2.22s2.57.72 3.9.66c2 .07 3.99-.35 5.8-1.23l.02-2.33c-1.66.97-3.55 1.45-5.47 1.4-1.03.04-2.06-.14-3.01-.53s-1.81-.99-2.51-1.75a8.72 8.72 0 0 1-2.1-6.14c-.12-2.37.69-4.69 2.25-6.47.74-.82 1.65-1.46 2.66-1.9a7.68 7.68 0 0 1 3.21-.61c1.75-.03 3.47.4 5 1.25v-2.51a12.23 12.23 0 0 0-5-.88c-1.43-.02-2.86.23-4.18.76zM66.12 64.21a6.719 6.719 0 0 0-5.22-2.08c-1.03-.05-2.05.12-3.01.49s-1.83.93-2.57 1.64c-.72.8-1.27 1.73-1.63 2.75s-.51 2.09-.44 3.17c-.1 2.05.61 4.06 1.97 5.59.68.73 1.5 1.31 2.42 1.7.92.38 1.91.57 2.9.53 1.01.03 2.02-.16 2.96-.55s1.78-.98 2.47-1.73a8.06 8.06 0 0 0 2.02-5.76c.12-2.1-.55-4.15-1.87-5.75zm-1.83 10.27a4.394 4.394 0 0 1-3.57 1.51c-.69.03-1.37-.1-2-.36-.63-.27-1.19-.67-1.65-1.19a6.126 6.126 0 0 1-1.35-4.21c-.09-1.57.39-3.12 1.35-4.36.45-.52 1.01-.93 1.64-1.21.63-.27 1.32-.4 2-.37.68-.04 1.35.09 1.97.36s1.17.68 1.61 1.2a6.668 6.668 0 0 1 1.25 4.34c.1 1.52-.34 3.05-1.25 4.29zM75.88 63.23c-.75.67-1.3 1.54-1.57 2.51V62.6h-2.5v15.04h2.5v-7.67c-.08-1.39.28-2.78 1.02-3.96.27-.43.63-.79 1.07-1.04s.93-.4 1.43-.41c.64-.05 1.28.12 1.82.48v-2.48c-.46-.15-.94-.22-1.42-.2-.86-.01-1.69.3-2.35.87zM94.28 69.44c.12-1.91-.45-3.79-1.6-5.31-.57-.64-1.27-1.15-2.06-1.48s-1.64-.48-2.49-.43c-.94-.03-1.88.16-2.75.54-.86.38-1.63.95-2.25 1.67a8.217 8.217 0 0 0-1.97 5.71c-.13 2.08.52 4.14 1.82 5.76.63.69 1.41 1.23 2.27 1.59s1.8.51 2.73.47c1.85.09 3.68-.41 5.22-1.43v-2.26a7.506 7.506 0 0 1-4.65 1.68c-.65.04-1.31-.06-1.92-.3s-1.17-.59-1.63-1.06a5.58 5.58 0 0 1-1.27-3.86H94.3zm-10.57-.7c.13-1.19.65-2.31 1.47-3.18a3.86 3.86 0 0 1 2.88-1.23c.52-.03 1.03.06 1.51.26s.9.5 1.24.89c.7.93 1.05 2.07 1 3.23z"/>
  </g>
</symbol>

<symbol id="github" viewBox="0 0 256 250" >
 <g>
    <path d="M128.00106,0 C57.3172926,0 0,57.3066942 0,128.00106 C0,184.555281 36.6761997,232.535542 87.534937,249.460899 C93.9320223,250.645779 96.280588,246.684165 96.280588,243.303333 C96.280588,240.251045 96.1618878,230.167899 96.106777,219.472176 C60.4967585,227.215235 52.9826207,204.369712 52.9826207,204.369712 C47.1599584,189.574598 38.770408,185.640538 38.770408,185.640538 C27.1568785,177.696113 39.6458206,177.859325 39.6458206,177.859325 C52.4993419,178.762293 59.267365,191.04987 59.267365,191.04987 C70.6837675,210.618423 89.2115753,204.961093 96.5158685,201.690482 C97.6647155,193.417512 100.981959,187.77078 104.642583,184.574357 C76.211799,181.33766 46.324819,170.362144 46.324819,121.315702 C46.324819,107.340889 51.3250588,95.9223682 59.5132437,86.9583937 C58.1842268,83.7344152 53.8029229,70.715562 60.7532354,53.0843636 C60.7532354,53.0843636 71.5019501,49.6441813 95.9626412,66.2049595 C106.172967,63.368876 117.123047,61.9465949 128.00106,61.8978432 C138.879073,61.9465949 149.837632,63.368876 160.067033,66.2049595 C184.49805,49.6441813 195.231926,53.0843636 195.231926,53.0843636 C202.199197,70.715562 197.815773,83.7344152 196.486756,86.9583937 C204.694018,95.9223682 209.660343,107.340889 209.660343,121.315702 C209.660343,170.478725 179.716133,181.303747 151.213281,184.472614 C155.80443,188.444828 159.895342,196.234518 159.895342,208.176593 C159.895342,225.303317 159.746968,239.087361 159.746968,243.303333 C159.746968,246.709601 162.05102,250.70089 168.53925,249.443941 C219.370432,232.499507 256,184.536204 256,128.00106 C256,57.3066942 198.691187,0 128.00106,0 Z M47.9405593,182.340212 C47.6586465,182.976105 46.6581745,183.166873 45.7467277,182.730227 C44.8183235,182.312656 44.2968914,181.445722 44.5978808,180.80771 C44.8734344,180.152739 45.876026,179.97045 46.8023103,180.409216 C47.7328342,180.826786 48.2627451,181.702199 47.9405593,182.340212 Z M54.2367892,187.958254 C53.6263318,188.524199 52.4329723,188.261363 51.6232682,187.366874 C50.7860088,186.474504 50.6291553,185.281144 51.2480912,184.70672 C51.8776254,184.140775 53.0349512,184.405731 53.8743302,185.298101 C54.7115892,186.201069 54.8748019,187.38595 54.2367892,187.958254 Z M58.5562413,195.146347 C57.7719732,195.691096 56.4895886,195.180261 55.6968417,194.042013 C54.9125733,192.903764 54.9125733,191.538713 55.713799,190.991845 C56.5086651,190.444977 57.7719732,190.936735 58.5753181,192.066505 C59.3574669,193.22383 59.3574669,194.58888 58.5562413,195.146347 Z M65.8613592,203.471174 C65.1597571,204.244846 63.6654083,204.03712 62.5716717,202.981538 C61.4524999,201.94927 61.1409122,200.484596 61.8446341,199.710926 C62.5547146,198.935137 64.0575422,199.15346 65.1597571,200.200564 C66.2704506,201.230712 66.6095936,202.705984 65.8613592,203.471174 Z M75.3025151,206.281542 C74.9930474,207.284134 73.553809,207.739857 72.1039724,207.313809 C70.6562556,206.875043 69.7087748,205.700761 70.0012857,204.687571 C70.302275,203.678621 71.7478721,203.20382 73.2083069,203.659543 C74.6539041,204.09619 75.6035048,205.261994 75.3025151,206.281542 Z M86.046947,207.473627 C86.0829806,208.529209 84.8535871,209.404622 83.3316829,209.4237 C81.8013,209.457614 80.563428,208.603398 80.5464708,207.564772 C80.5464708,206.498591 81.7483088,205.631657 83.2786917,205.606221 C84.8005962,205.576546 86.046947,206.424403 86.046947,207.473627 Z M96.6021471,207.069023 C96.7844366,208.099171 95.7267341,209.156872 94.215428,209.438785 C92.7295577,209.710099 91.3539086,209.074206 91.1652603,208.052538 C90.9808515,206.996955 92.0576306,205.939253 93.5413813,205.66582 C95.054807,205.402984 96.4092596,206.021919 96.6021471,207.069023 Z" fill="#161614"></path>
  </g>
</symbol>

<symbol id="html" viewBox="0 0 256 361" >
 <g>
    <path d="M255.554813,70.7657143 L232.31367,331.125451 L127.843868,360.087912 L23.6617143,331.166242 L0.445186813,70.7657143 L255.554813,70.7657143 L255.554813,70.7657143 Z" fill="#E44D26"></path>
    <path d="M128,337.950242 L212.416703,314.546637 L232.277802,92.0573187 L128,92.0573187 L128,337.950242 L128,337.950242 Z" fill="#F16529"></path>
    <path d="M82.8202198,155.932132 L128,155.932132 L128,123.994725 L47.917011,123.994725 L48.6814945,132.562989 L56.530989,220.572835 L128,220.572835 L128,188.636132 L85.7389011,188.636132 L82.8202198,155.932132 L82.8202198,155.932132 Z" fill="#EBEBEB"></path>
    <path d="M90.0177582,236.54189 L57.957978,236.54189 L62.4323516,286.687648 L127.853011,304.848879 L128,304.808088 L128,271.580132 L127.860044,271.617407 L92.2915165,262.013187 L90.0177582,236.54189 L90.0177582,236.54189 Z" fill="#EBEBEB"></path>
    <path d="M24.1807473,0 L40.4107253,0 L40.4107253,16.0351648 L55.2573187,16.0351648 L55.2573187,0 L71.488,0 L71.488,48.5584176 L55.258022,48.5584176 L55.258022,32.2981978 L40.4114286,32.2981978 L40.4114286,48.5584176 L24.1814505,48.5584176 L24.1814505,0 L24.1807473,0 L24.1807473,0 Z" fill="#000000"></path>
    <path d="M92.8309451,16.1026813 L78.5427692,16.1026813 L78.5427692,0 L123.356835,0 L123.356835,16.1026813 L109.06233,16.1026813 L109.06233,48.5584176 L92.8316484,48.5584176 L92.8316484,16.1026813 L92.8309451,16.1026813 L92.8309451,16.1026813 Z" fill="#000000"></path>
    <path d="M130.469275,0 L147.392703,0 L157.802901,17.061978 L168.202549,0 L185.132308,0 L185.132308,48.5584176 L168.969143,48.5584176 L168.969143,24.4901978 L157.802901,41.7554286 L157.523692,41.7554286 L146.349714,24.4901978 L146.349714,48.5584176 L130.469275,48.5584176 L130.469275,0 L130.469275,0 Z" fill="#000000"></path>
    <path d="M193.20967,0 L209.444571,0 L209.444571,32.5077802 L232.268659,32.5077802 L232.268659,48.5584176 L193.20967,48.5584176 L193.20967,0 L193.20967,0 Z" fill="#000000"></path>
    <path d="M127.889582,220.572835 L167.216527,220.572835 L163.509451,261.992791 L127.889582,271.606857 L127.889582,304.833407 L193.362286,286.687648 L193.842637,281.291956 L201.347516,197.212132 L202.126769,188.636132 L127.889582,188.636132 L127.889582,220.572835 L127.889582,220.572835 Z" fill="#FFFFFF"></path>
    <path d="M127.889582,155.854066 L127.889582,155.932132 L205.032791,155.932132 L205.673495,148.753582 L207.128615,132.562989 L207.892396,123.994725 L127.889582,123.994725 L127.889582,155.854066 L127.889582,155.854066 Z" fill="#FFFFFF"></path>
  </g>
</symbol>

<symbol id="js" viewBox="0 0 256 256" >
  <g>
    <path d="M0,0 L256,0 L256,256 L0,256 L0,0 Z" fill="#F7DF1E"></path>
    <path d="M67.311746,213.932292 L86.902654,202.076241 C90.6821079,208.777346 94.1202286,214.447137 102.367086,214.447137 C110.272203,214.447137 115.256076,211.354819 115.256076,199.326883 L115.256076,117.528787 L139.313575,117.528787 L139.313575,199.666997 C139.313575,224.58433 124.707759,235.925943 103.3984,235.925943 C84.1532952,235.925943 72.9819429,225.958603 67.3113397,213.93026" fill="#000000"></path>
    <path d="M152.380952,211.354413 L171.969422,200.0128 C177.125994,208.433981 183.827911,214.619835 195.684368,214.619835 C205.652521,214.619835 212.009041,209.635962 212.009041,202.762159 C212.009041,194.513676 205.479416,191.592025 194.481168,186.78207 L188.468419,184.202565 C171.111213,176.81473 159.597308,167.53534 159.597308,147.944838 C159.597308,129.901308 173.344508,116.153295 194.825752,116.153295 C210.119924,116.153295 221.117765,121.48094 229.021663,135.400432 L210.29059,147.428775 C206.166146,140.040127 201.699556,137.119289 194.826159,137.119289 C187.78047,137.119289 183.312254,141.587098 183.312254,147.428775 C183.312254,154.646349 187.78047,157.568406 198.089956,162.036622 L204.103924,164.614095 C224.553448,173.378641 236.067352,182.313448 236.067352,202.418387 C236.067352,224.071924 219.055137,235.927975 196.200432,235.927975 C173.860978,235.927975 159.425829,225.274311 152.381359,211.354413" fill="#000000"></path>
  </g>
</symbol>

<symbol id="npm" viewBox="0 0 256 100" >
  <g>
    <path d="M0,0 L0,85.4980695 L71.1660232,85.4980695 L71.1660232,99.8301158 L128,99.8301158 L128,85.4980695 L256,85.4980695 L256,0 L0,0 L0,0 Z" fill="#CB3837"></path>
    <path d="M42.5019305,14.3320463 L14.3320463,14.3320463 L14.3320463,28.6640927 L14.3320463,71.1660232 L42.5019305,71.1660232 L42.5019305,28.6640927 L56.8339768,28.6640927 L56.8339768,71.1660232 L71.1660232,71.1660232 L71.1660232,28.6640927 L71.1660232,14.3320463 L42.5019305,14.3320463 L42.5019305,14.3320463 Z" fill="#FFFFFF"></path>
    <path d="M85.4980695,14.3320463 L85.4980695,68.2007722 L85.4980695,71.1660232 L85.4980695,85.4980695 L114.162162,85.4980695 L114.162162,71.1660232 L142.332046,71.1660232 L142.332046,14.3320463 L85.4980695,14.3320463 L85.4980695,14.3320463 Z M128,56.8339768 L114.162162,56.8339768 L114.162162,28.6640927 L128,28.6640927 L128,56.8339768 L128,56.8339768 Z" fill="#FFFFFF"></path>
    <path d="M184.833977,14.3320463 L156.664093,14.3320463 L156.664093,28.6640927 L156.664093,71.1660232 L184.833977,71.1660232 L184.833977,28.6640927 L199.166023,28.6640927 L199.166023,71.1660232 L213.498069,71.1660232 L213.498069,28.6640927 L227.830116,28.6640927 L227.830116,71.1660232 L242.162162,71.1660232 L242.162162,28.6640927 L242.162162,15.3204633 L242.162162,14.3320463 L184.833977,14.3320463 L184.833977,14.3320463 Z" fill="#FFFFFF"></path>
  </g>
</symbol>

<symbol id="react" viewBox="0 0 256 228" >
  <g>
    <path d="M210.483381,73.8236374 C207.827698,72.9095503 205.075867,72.0446761 202.24247,71.2267368 C202.708172,69.3261098 203.135596,67.4500894 203.515631,65.6059664 C209.753843,35.3248922 205.675082,10.9302478 191.747328,2.89849283 C178.392359,-4.80289661 156.551327,3.22703567 134.492936,22.4237776 C132.371761,24.2697233 130.244662,26.2241201 128.118477,28.2723861 C126.701777,26.917204 125.287358,25.6075897 123.876584,24.3549348 C100.758745,3.82852863 77.5866802,-4.82157937 63.6725966,3.23341515 C50.3303869,10.9571328 46.3792156,33.8904224 51.9945178,62.5880206 C52.5367729,65.3599011 53.1706189,68.1905639 53.8873982,71.068617 C50.6078941,71.9995641 47.4418534,72.9920277 44.4125156,74.0478303 C17.3093297,83.497195 0,98.3066828 0,113.667995 C0,129.533287 18.5815786,145.446423 46.8116526,155.095373 C49.0394553,155.856809 51.3511025,156.576778 53.7333796,157.260293 C52.9600965,160.37302 52.2875179,163.423318 51.7229345,166.398431 C46.3687351,194.597975 50.5500231,216.989464 63.8566899,224.664425 C77.6012619,232.590464 100.66852,224.443422 123.130185,204.809231 C124.905501,203.257196 126.687196,201.611293 128.472081,199.886102 C130.785552,202.113904 133.095375,204.222319 135.392897,206.199955 C157.14963,224.922338 178.637969,232.482469 191.932332,224.786092 C205.663234,216.837268 210.125675,192.78347 204.332202,163.5181 C203.88974,161.283006 203.374826,158.99961 202.796573,156.675661 C204.416503,156.196743 206.006814,155.702335 207.557482,155.188332 C236.905331,145.46465 256,129.745175 256,113.667995 C256,98.2510906 238.132466,83.3418093 210.483381,73.8236374 L210.483381,73.8236374 Z M204.118035,144.807565 C202.718197,145.270987 201.281904,145.718918 199.818271,146.153177 C196.578411,135.896354 192.205739,124.989735 186.854729,113.72131 C191.961041,102.721277 196.164656,91.9540963 199.313837,81.7638014 C201.93261,82.5215915 204.474374,83.3208483 206.923636,84.1643056 C230.613348,92.3195488 245.063763,104.377206 245.063763,113.667995 C245.063763,123.564379 229.457753,136.411268 204.118035,144.807565 L204.118035,144.807565 Z M193.603754,165.642007 C196.165567,178.582766 196.531475,190.282717 194.834536,199.429057 C193.309843,207.64764 190.243595,213.12715 186.452366,215.321689 C178.384612,219.991462 161.131788,213.921395 142.525146,197.909832 C140.392124,196.074366 138.243609,194.114502 136.088259,192.040261 C143.301619,184.151133 150.510878,174.979732 157.54698,164.793993 C169.922699,163.695814 181.614905,161.900447 192.218042,159.449363 C192.740247,161.555956 193.204126,163.621993 193.603754,165.642007 L193.603754,165.642007 Z M87.2761866,214.514686 C79.3938934,217.298414 73.1160375,217.378157 69.3211631,215.189998 C61.2461189,210.532528 57.8891498,192.554265 62.4682434,168.438039 C62.9927272,165.676183 63.6170041,162.839142 64.3365173,159.939216 C74.8234575,162.258154 86.4299951,163.926841 98.8353334,164.932519 C105.918826,174.899534 113.336329,184.06091 120.811247,192.08264 C119.178102,193.65928 117.551336,195.16028 115.933685,196.574699 C106.001303,205.256705 96.0479605,211.41654 87.2761866,214.514686 L87.2761866,214.514686 Z M50.3486141,144.746959 C37.8658105,140.48046 27.5570398,134.935332 20.4908634,128.884403 C14.1414664,123.446815 10.9357817,118.048415 10.9357817,113.667995 C10.9357817,104.34622 24.8334611,92.4562517 48.0123604,84.3748281 C50.8247961,83.3942121 53.7689223,82.4701001 56.8242337,81.6020363 C60.0276398,92.0224477 64.229889,102.917218 69.3011135,113.93411 C64.1642716,125.11459 59.9023288,136.182975 56.6674809,146.725506 C54.489347,146.099407 52.3791089,145.440499 50.3486141,144.746959 L50.3486141,144.746959 Z M62.7270678,60.4878073 C57.9160346,35.9004118 61.1112387,17.3525532 69.1516515,12.6982729 C77.7160924,7.74005624 96.6544653,14.8094222 116.614922,32.5329619 C117.890816,33.6657739 119.171723,34.8514442 120.456275,36.0781256 C113.018267,44.0647686 105.66866,53.1573386 98.6480514,63.0655695 C86.6081646,64.1815215 75.0831931,65.9741531 64.4868907,68.3746571 C63.8206914,65.6948233 63.2305903,63.0619242 62.7270678,60.4878073 L62.7270678,60.4878073 Z M173.153901,87.7550367 C170.620796,83.3796304 168.020249,79.1076627 165.369124,74.9523483 C173.537126,75.9849113 181.362914,77.3555864 188.712066,79.0329319 C186.505679,86.1041206 183.755673,93.4974728 180.518546,101.076741 C178.196419,96.6680702 175.740322,92.2229454 173.153901,87.7550367 L173.153901,87.7550367 Z M128.122121,43.8938899 C133.166461,49.3588189 138.218091,55.4603279 143.186789,62.0803968 C138.179814,61.8439007 133.110868,61.720868 128.000001,61.720868 C122.937434,61.720868 117.905854,61.8411667 112.929865,62.0735617 C117.903575,55.515009 122.99895,49.4217021 128.122121,43.8938899 L128.122121,43.8938899 Z M82.8018984,87.830679 C80.2715265,92.2183886 77.8609975,96.6393627 75.5753239,101.068539 C72.3906004,93.5156998 69.6661103,86.0886276 67.440586,78.9171899 C74.7446255,77.2826781 82.5335049,75.9461789 90.6495601,74.9332099 C87.9610684,79.1268011 85.3391054,83.4302106 82.8018984,87.8297677 L82.8018984,87.830679 L82.8018984,87.830679 Z M90.8833221,153.182899 C82.4979621,152.247395 74.5919739,150.979704 67.289757,149.390303 C69.5508242,142.09082 72.3354636,134.505173 75.5876271,126.789657 C77.8792246,131.215644 80.2993228,135.638441 82.8451877,140.03572 L82.8456433,140.03572 C85.4388987,144.515476 88.1255676,148.90364 90.8833221,153.182899 L90.8833221,153.182899 Z M128.424691,184.213105 C123.24137,178.620587 118.071264,172.434323 113.021912,165.780078 C117.923624,165.972373 122.921029,166.0708 128.000001,166.0708 C133.217953,166.0708 138.376211,165.953235 143.45336,165.727219 C138.468257,172.501308 133.434855,178.697141 128.424691,184.213105 L128.424691,184.213105 Z M180.622896,126.396409 C184.044571,134.195313 186.929004,141.741317 189.219234,148.9164 C181.796719,150.609693 173.782736,151.973534 165.339049,152.986959 C167.996555,148.775595 170.619884,144.430263 173.197646,139.960532 C175.805484,135.438399 178.28163,130.90943 180.622896,126.396409 L180.622896,126.396409 Z M163.724586,134.496971 C159.722835,141.435557 155.614455,148.059271 151.443648,154.311611 C143.847063,154.854776 135.998946,155.134562 128.000001,155.134562 C120.033408,155.134562 112.284171,154.887129 104.822013,154.402745 C100.48306,148.068386 96.285368,141.425078 92.3091341,134.556664 L92.3100455,134.556664 C88.3442923,127.706935 84.6943232,120.799333 81.3870228,113.930466 C84.6934118,107.045648 88.3338117,100.130301 92.276781,93.292874 L92.2758697,93.294241 C96.2293193,86.4385872 100.390102,79.8276317 104.688954,73.5329157 C112.302398,72.9573964 120.109505,72.6571055 127.999545,72.6571055 L128.000001,72.6571055 C135.925583,72.6571055 143.742714,72.9596746 151.353879,73.5402067 C155.587114,79.7888993 159.719645,86.3784378 163.688588,93.2350031 C167.702644,100.168578 171.389978,107.037901 174.724618,113.77508 C171.400003,120.627999 167.720871,127.566587 163.724586,134.496971 L163.724586,134.496971 Z M186.284677,12.3729198 C194.857321,17.3165548 198.191049,37.2542268 192.804953,63.3986692 C192.461372,65.0669011 192.074504,66.7661189 191.654369,68.4881206 C181.03346,66.0374921 169.500286,64.2138746 157.425315,63.0810626 C150.391035,53.0639249 143.101577,43.9572289 135.784778,36.073113 C137.751934,34.1806885 139.716356,32.3762092 141.672575,30.673346 C160.572216,14.2257007 178.236518,7.73185406 186.284677,12.3729198 L186.284677,12.3729198 Z M128.000001,90.8080696 C140.624975,90.8080696 150.859926,101.042565 150.859926,113.667995 C150.859926,126.292969 140.624975,136.527922 128.000001,136.527922 C115.375026,136.527922 105.140075,126.292969 105.140075,113.667995 C105.140075,101.042565 115.375026,90.8080696 128.000001,90.8080696 L128.000001,90.8080696 Z" fill="#00D8FF"></path>
  </g>
</symbol>

<symbol id="sass"  viewBox="0 0 256 192"  >
  <g fill="#CD6799">
    <path d="M220.281239,110.513661 C211.374863,110.560291 203.634244,112.705282 197.152641,115.876138 C194.774499,111.166485 192.396357,106.969763 191.976685,103.892168 C191.510383,100.301639 190.95082,98.1100182 191.510383,93.8200364 C192.069945,89.5300546 194.587978,83.4214936 194.541348,82.9551913 C194.494718,82.4888889 193.981785,80.2972678 188.852459,80.2506375 C183.723133,80.2040073 179.29326,81.2298725 178.780328,82.5821494 C178.267395,83.9344262 177.28816,87.0120219 176.635337,90.182878 C175.749362,94.8459016 166.376685,111.492896 161.014208,120.21275 C159.288889,116.808743 157.796721,113.824408 157.47031,111.446266 C157.004007,107.855738 156.444444,105.664117 157.004007,101.374135 C157.56357,97.084153 160.081603,90.975592 160.034973,90.5092896 C159.988342,90.0429872 159.47541,87.8513661 154.346084,87.8047359 C149.216758,87.7581056 144.786885,88.7839709 144.273953,90.1362477 C143.76102,91.4885246 143.201457,94.6593807 142.128962,97.7369763 C141.056466,100.814572 128.606193,128.606193 125.342077,135.78725 C123.663388,139.471038 122.217851,142.408743 121.191985,144.413843 L121.191985,144.413843 C121.191985,144.413843 121.145355,144.553734 121.005464,144.786885 C120.11949,146.512204 119.606557,147.444809 119.606557,147.444809 C119.606557,147.444809 119.606557,147.444809 119.606557,147.491439 C118.907104,148.750455 118.16102,149.916211 117.787978,149.916211 C117.508197,149.916211 116.995264,146.558834 117.881239,141.989071 C119.746448,132.336612 124.176321,117.321676 124.12969,116.808743 C124.12969,116.528962 124.969035,113.917668 121.238616,112.565392 C117.601457,111.213115 116.295811,113.451366 115.969399,113.451366 C115.642987,113.451366 115.409836,114.24408 115.409836,114.24408 C115.409836,114.24408 119.466667,97.3639344 107.669217,97.3639344 C100.301639,97.3639344 90.1362477,105.430965 85.1001821,112.705282 C81.929326,114.430601 75.1679417,118.11439 67.940255,122.07796 C65.189071,123.616758 62.3446266,125.155556 59.6867031,126.601093 C59.5001821,126.414572 59.3136612,126.181421 59.1271403,125.9949 C44.8582878,110.746812 18.4655738,99.9752277 19.5846995,79.5045537 C20.0043716,72.0437158 22.5690346,52.4590164 70.2717668,28.6775956 C109.534426,9.32604736 140.776685,14.6885246 146.185792,26.579235 C153.926412,43.5526412 129.445537,75.0746812 88.8772313,79.6444444 C73.3959927,81.3697632 65.2823315,75.4010929 63.2306011,73.1628415 C61.0856102,70.8313297 60.7591985,70.691439 59.9664845,71.1577413 C58.6608379,71.8571949 59.5001821,73.9555556 59.9664845,75.1679417 C61.1788707,78.3387978 66.168306,83.9344262 74.6083789,86.6856102 C82.0692168,89.1103825 100.208379,90.4626594 122.17122,81.9759563 C146.745355,72.463388 165.957013,46.0240437 160.314754,23.8746812 C154.672495,1.3989071 117.368306,-6.01530055 82.0692168,6.52823315 C61.0856102,13.989071 38.3300546,25.7398907 21.9628415,41.0346084 C2.51803279,59.2204007 -0.559562842,75.028051 0.699453552,81.6495446 C5.22258652,105.151184 37.6306011,120.445902 50.5938069,131.777049 C49.9409836,132.150091 49.3347905,132.476503 48.8218579,132.756284 C42.340255,135.97377 17.6262295,148.890346 11.4710383,162.553005 C4.47650273,178.034244 12.5901639,189.13224 17.9526412,190.624408 C34.5996357,195.240801 51.7129326,186.940619 60.8990893,173.23133 C70.0852459,159.52204 68.9661202,141.70929 64.7227687,133.548998 C64.6761384,133.455738 64.6295082,133.362477 64.5362477,133.269217 C66.2149362,132.289982 67.940255,131.264117 69.6189435,130.284882 C72.9296903,128.326412 76.1938069,126.507832 78.9916211,125.015665 C77.4061931,129.352277 76.2404372,134.528233 75.6808743,141.989071 C74.9814208,150.755556 78.571949,162.133333 83.2816029,166.609836 C85.3799636,168.568306 87.8513661,168.614936 89.4367942,168.614936 C94.9391621,168.614936 97.4105647,164.045173 100.161749,158.636066 C103.519126,152.014572 106.550091,144.320583 106.550091,144.320583 C106.550091,144.320583 102.773042,165.117668 113.031694,165.117668 C116.762113,165.117668 120.539162,160.268124 122.217851,157.796721 L122.217851,157.843352 C122.217851,157.843352 122.311111,157.703461 122.497632,157.377049 C122.870674,156.770856 123.103825,156.397814 123.103825,156.397814 L123.103825,156.304554 C124.595993,153.69326 127.95337,147.77122 132.942805,137.93224 C139.377778,125.248816 145.579599,109.394536 145.579599,109.394536 C145.579599,109.394536 146.139162,113.264845 148.051002,119.699818 C149.170128,123.476867 151.501639,127.626958 153.366849,131.637158 C151.874681,133.735519 150.942077,134.901275 150.942077,134.901275 C150.942077,134.901275 150.942077,134.901275 150.988707,134.947905 C149.776321,136.533333 148.470674,138.258652 147.025137,139.937341 C141.942441,145.999271 135.88051,152.947177 135.041166,154.952277 C134.061931,157.330419 134.295082,159.055738 136.160291,160.454645 C137.512568,161.48051 139.937341,161.620401 142.408743,161.48051 C146.978506,161.154098 150.195993,160.034973 151.781421,159.335519 C154.252823,158.449545 157.143898,157.097268 159.848452,155.092168 C164.837887,151.408379 167.868852,146.139162 167.589071,139.191257 C167.44918,135.367577 166.190164,131.543898 164.651366,127.95337 C165.117668,127.300546 165.537341,126.647723 166.003643,125.9949 C173.884153,114.477231 179.992714,101.840437 179.992714,101.840437 C179.992714,101.840437 180.552277,105.710747 182.464117,112.145719 C183.396721,115.409836 185.308561,118.953734 186.98725,122.404372 C179.573042,128.419672 175.003279,135.414208 173.37122,139.983971 C170.433515,148.470674 172.718397,152.294353 177.055009,153.180328 C179.013479,153.6 181.811293,152.667395 183.863024,151.781421 C186.474317,150.942077 189.551913,149.496539 192.489617,147.351548 C197.479053,143.66776 202.281967,138.538434 202.002186,131.590528 C201.862295,128.419672 201.022951,125.295446 199.857195,122.264481 C206.152277,119.653188 214.265938,118.20765 224.617851,119.420036 C246.813843,122.03133 251.197086,135.88051 250.357741,141.70929 C249.518397,147.538069 244.855373,150.708925 243.316576,151.68816 C241.777778,152.667395 241.264845,152.993807 241.404736,153.69326 C241.591257,154.719126 242.337341,154.672495 243.642987,154.485974 C245.461566,154.159563 255.300546,149.776321 255.720219,139.051366 C256.419672,125.342077 243.363206,110.37377 220.281239,110.513661 L220.281239,110.513661 Z M49.0550091,168.241894 C41.6874317,176.262295 31.4287796,179.29326 26.9989071,176.728597 C22.242623,173.977413 24.1078324,162.133333 33.1540984,153.64663 C38.6564663,148.470674 45.7442623,143.66776 50.4539162,140.730055 C51.5264117,140.077231 53.1118397,139.144627 55.0236794,137.978871 C55.3500911,137.79235 55.536612,137.699089 55.536612,137.699089 L55.536612,137.699089 C55.9096539,137.465938 56.2826958,137.232787 56.6557377,136.999636 C59.9664845,149.123497 56.7956284,159.801821 49.0550091,168.241894 L49.0550091,168.241894 Z M102.679781,131.777049 C100.115118,138.025501 94.7526412,154.019672 91.4885246,153.133698 C88.6907104,152.387614 86.9653916,140.263752 90.9289617,128.279781 C92.9340619,122.264481 97.1774135,115.083424 99.648816,112.28561 C103.659016,107.809107 108.088889,106.31694 109.161384,108.135519 C110.513661,110.513661 104.265209,127.860109 102.679781,131.777049 L102.679781,131.777049 Z M146.931876,152.947177 C145.859381,153.50674 144.833515,153.879781 144.367213,153.6 C144.040801,153.413479 144.833515,152.667395 144.833515,152.667395 C144.833515,152.667395 150.382514,146.698725 152.574135,143.994171 C153.833151,142.408743 155.325319,140.543534 156.910747,138.445173 L156.910747,139.051366 C156.910747,146.185792 150.009472,150.988707 146.931876,152.947177 L146.931876,152.947177 Z M181.065209,145.159927 C180.272495,144.600364 180.412386,142.735155 183.07031,136.906375 C184.096175,134.621494 186.520947,130.797814 190.671038,127.114026 C191.137341,128.606193 191.463752,130.05173 191.417122,131.404007 C191.370492,140.403643 184.935519,143.76102 181.065209,145.159927 L181.065209,145.159927 Z"></path>
  </g>
</symbol>

<symbol id="ts" viewBox="0 0 256 256" >
	<g>
		<polygon fill="#007ACC" transform="translate(128.000000, 128.000000) scale(1, -1) translate(-128.000000, -128.000000) " points="0 128 0 0 128 0 256 0 256 128 256 256 128 256 0 256"></polygon>
		<path d="M146.658132,223.436863 L146.739401,212.953054 L130.079084,212.953054 L113.418767,212.953054 L113.418767,165.613371 L113.418767,118.273689 L101.63464,118.273689 L89.8505126,118.273689 L89.8505126,165.613371 L89.8505126,212.953054 L73.1901951,212.953054 L56.5298776,212.953054 L56.5298776,223.233689 C56.5298776,228.922577 56.6517824,233.676863 56.8143221,233.798768 C56.9362269,233.961308 77.2130522,234.042577 101.797179,234.001943 L146.536227,233.880038 L146.658132,223.436863 Z" fill="#FFFFFF" transform="translate(101.634640, 176.142993) rotate(-180.000000) translate(-101.634640, -176.142993) "></path>
		<path d="M206.566631,234.272145 C213.068219,232.646748 218.025679,229.761668 222.57679,225.048018 C224.933616,222.528653 228.428219,217.936907 228.712663,216.839764 C228.793933,216.514684 217.659965,209.037859 210.914568,204.852462 C210.670758,204.689922 209.69552,205.74643 208.598377,207.371827 C205.306949,212.166748 201.852981,214.239129 196.570441,214.604843 C188.809171,215.133097 183.811076,211.069605 183.851711,204.283573 C183.851711,202.292462 184.136155,201.114049 184.948854,199.488653 C186.65552,195.953414 189.825044,193.840399 199.7806,189.533097 C218.106949,181.649922 225.949489,176.448653 230.825679,169.053097 C236.270758,160.804208 237.489806,147.638494 233.792028,137.845478 C229.728536,127.199129 219.651076,119.966113 205.469489,117.568653 C201.080917,116.796589 190.678377,116.918494 185.964727,117.771827 C175.684092,119.600399 165.931711,124.679764 159.917743,131.343891 C157.560917,133.944526 152.969171,140.730557 153.253616,141.218176 C153.37552,141.380716 154.432028,142.030875 155.610441,142.721668 C156.748219,143.371827 161.05552,145.850557 165.119012,148.207383 L172.473933,152.474049 L174.01806,150.198494 C176.171711,146.907065 180.885362,142.396589 183.729806,140.893097 C191.897425,136.585795 203.112663,137.195319 208.639012,142.15278 C210.995838,144.30643 211.971076,146.541351 211.971076,149.83278 C211.971076,152.799129 211.605362,154.099446 210.061235,156.334367 C208.070123,159.178811 204.006631,161.576272 192.466314,166.574367 C179.259965,172.263256 173.571076,175.798494 168.369806,181.406113 C165.362822,184.656907 162.518377,189.858176 161.339965,194.206113 C160.364727,197.822621 160.120917,206.884208 160.892981,210.541351 C163.61552,223.300716 173.245996,232.199764 187.143139,234.841034 C191.653616,235.694367 202.137425,235.369287 206.566631,234.272145 Z" fill="#FFFFFF" transform="translate(194.578507, 176.190240) scale(1, -1) translate(-194.578507, -176.190240) "></path>
	</g>
</symbol>

<symbol id="webpack" viewBox="0 0 256 290" >
	<g>
		<polygon fill="#FFFFFF" points="128 0.0483018868 256 72.4528302 256 217.310189 128 289.714717 0 217.310189 0 72.4528302"></polygon>
		<path d="M233.153208,212.286792 L132.250566,269.427925 L132.250566,224.990189 L195.139623,190.357736 L233.153208,212.286792 Z M240.060377,206.055849 L240.060377,86.6535849 L203.157736,107.954717 L203.157736,184.754717 L240.060377,206.055849 Z M22.4603774,212.286792 L123.363019,269.379623 L123.363019,224.941887 L60.4739623,190.357736 L22.4603774,212.286792 L22.4603774,212.286792 Z M15.5532075,206.055849 L15.5532075,86.6535849 L52.4558491,107.954717 L52.4558491,184.754717 L15.5532075,206.055849 L15.5532075,206.055849 Z M19.8520755,78.925283 L123.363019,20.3833962 L123.363019,63.3720755 L57.0445283,99.84 L56.5132075,100.129811 L19.8520755,78.925283 L19.8520755,78.925283 Z M235.713208,78.925283 L132.250566,20.3833962 L132.250566,63.3720755 L198.520755,99.8883019 L199.052075,100.178113 L235.713208,78.925283 L235.713208,78.925283 Z" fill="#8ED6FB"></path>
		<path d="M123.363019,214.846792 L61.3433962,180.697358 L61.3433962,113.123019 L123.363019,148.914717 L123.363019,214.846792 L123.363019,214.846792 Z M132.250566,214.846792 L194.270189,180.74566 L194.270189,113.123019 L132.250566,148.914717 L132.250566,214.846792 Z M65.4973585,105.298113 L127.806792,71.0520755 L190.067925,105.298113 L127.806792,141.234717 L65.4973585,105.298113 L65.4973585,105.298113 Z" fill="#1C78C0"></path>
	</g>
</symbol>


<symbol id="nodejs" viewBox="0 0 489.74 132.25" >
  <defs>
  <clipPath id="clip1">
    <path d="M 197 0 L 271 0 L 271 132.25 L 197 132.25 Z M 197 0 "/>
  </clipPath>
  <clipPath id="clip2">
    <path d="M 477 51 L 489.738281 51 L 489.738281 64 L 477 64 Z M 477 51 "/>
  </clipPath>
  </defs>
  <g id="surface1">
  <path style=" stroke:none;fill-rule:evenodd;fill:rgb(16.899109%,17.999268%,19.198608%);fill-opacity:1;" d="M 73.691406 70.28125 C 73.691406 68.851563 72.9375 67.539063 71.703125 66.828125 L 38.828125 47.910156 C 38.273438 47.582031 37.648438 47.414063 37.019531 47.386719 C 36.960938 47.386719 36.726563 47.386719 36.679688 47.386719 C 36.050781 47.414063 35.425781 47.582031 34.863281 47.910156 L 1.988281 66.828125 C 0.761719 67.539063 0 68.851563 0 70.28125 L 0.0703125 121.226563 C 0.0703125 121.933594 0.441406 122.59375 1.0625 122.941406 C 1.675781 123.308594 2.429688 123.308594 3.035156 122.941406 L 22.574219 111.753906 C 23.808594 111.019531 24.5625 109.722656 24.5625 108.308594 L 24.5625 84.507813 C 24.5625 83.085938 25.3125 81.773438 26.542969 81.070313 L 34.863281 76.277344 C 35.484375 75.917969 36.160156 75.742188 36.855469 75.742188 C 37.53125 75.742188 38.226563 75.917969 38.828125 76.277344 L 47.144531 81.070313 C 48.375 81.773438 49.132813 83.085938 49.132813 84.507813 L 49.132813 108.308594 C 49.132813 109.722656 49.894531 111.027344 51.121094 111.753906 L 70.65625 122.941406 C 71.265625 123.308594 72.03125 123.308594 72.640625 122.941406 C 73.246094 122.59375 73.625 121.933594 73.625 121.226563 L 73.691406 70.28125 "/>
  <g clip-path="url(#clip1)" clip-rule="nonzero">
  <path style=" stroke:none;fill-rule:evenodd;fill:rgb(16.899109%,17.999268%,19.198608%);fill-opacity:1;" d="M 246.1875 96.808594 C 246.1875 97.160156 245.996094 97.488281 245.691406 97.667969 L 234.398438 104.175781 C 234.09375 104.351563 233.714844 104.351563 233.40625 104.175781 L 222.113281 97.667969 C 221.808594 97.488281 221.617188 97.160156 221.617188 96.808594 L 221.617188 83.769531 C 221.617188 83.414063 221.808594 83.085938 222.113281 82.90625 L 233.40625 76.386719 C 233.714844 76.207031 234.09375 76.207031 234.398438 76.386719 L 245.691406 82.90625 C 245.996094 83.085938 246.1875 83.414063 246.1875 83.769531 Z M 249.238281 0.246094 C 248.625 -0.0976563 247.871094 -0.0898438 247.265625 0.269531 C 246.660156 0.625 246.285156 1.277344 246.285156 1.980469 L 246.285156 52.433594 C 246.285156 52.929688 246.019531 53.390625 245.59375 53.636719 C 245.160156 53.886719 244.632813 53.886719 244.199219 53.636719 L 235.96875 48.894531 C 234.738281 48.183594 233.226563 48.1875 232 48.894531 L 199.109375 67.875 C 197.882813 68.585938 197.125 69.894531 197.125 71.3125 L 197.125 109.28125 C 197.125 110.703125 197.882813 112.011719 199.109375 112.722656 L 231.996094 131.71875 C 233.226563 132.425781 234.738281 132.425781 235.96875 131.71875 L 268.863281 112.722656 C 270.089844 112.011719 270.847656 110.703125 270.847656 109.28125 L 270.847656 14.636719 C 270.847656 13.195313 270.070313 11.867188 268.8125 11.167969 L 249.238281 0.246094 "/>
  </g>
  <path style=" stroke:none;fill-rule:evenodd;fill:rgb(16.899109%,17.999268%,19.198608%);fill-opacity:1;" d="M 366.902344 83.425781 C 368.128906 82.71875 368.878906 81.410156 368.878906 79.992188 L 368.878906 70.792969 C 368.878906 69.378906 368.128906 68.070313 366.902344 67.355469 L 334.226563 48.386719 C 332.996094 47.671875 331.476563 47.667969 330.246094 48.378906 L 297.367188 67.359375 C 296.140625 68.070313 295.382813 69.378906 295.382813 70.796875 L 295.382813 108.757813 C 295.382813 110.183594 296.148438 111.503906 297.390625 112.207031 L 330.0625 130.824219 C 331.265625 131.511719 332.742188 131.519531 333.957031 130.847656 L 353.71875 119.863281 C 354.34375 119.515625 354.734375 118.855469 354.738281 118.140625 C 354.742188 117.421875 354.363281 116.761719 353.742188 116.40625 L 320.65625 97.414063 C 320.039063 97.0625 319.660156 96.402344 319.660156 95.691406 L 319.660156 83.796875 C 319.660156 83.085938 320.035156 82.429688 320.652344 82.078125 L 330.949219 76.140625 C 331.5625 75.785156 332.320313 75.785156 332.933594 76.140625 L 343.234375 82.078125 C 343.851563 82.429688 344.226563 83.085938 344.226563 83.796875 L 344.226563 93.15625 C 344.226563 93.867188 344.609375 94.523438 345.222656 94.878906 C 345.839844 95.234375 346.597656 95.230469 347.210938 94.875 L 366.902344 83.425781 "/>
  <path style=" stroke:none;fill-rule:evenodd;fill:rgb(47.799683%,75.698853%,25.898743%);fill-opacity:1;" d="M 133.492188 48.179688 C 134.722656 47.46875 136.234375 47.46875 137.464844 48.179688 L 170.347656 67.15625 C 171.578125 67.867188 172.335938 69.175781 172.335938 70.597656 L 172.335938 108.582031 C 172.335938 109.996094 171.578125 111.308594 170.351563 112.019531 L 137.464844 131.011719 C 136.234375 131.722656 134.722656 131.722656 133.492188 131.011719 L 100.613281 112.019531 C 99.386719 111.308594 98.628906 109.996094 98.628906 108.582031 L 98.628906 70.59375 C 98.628906 69.175781 99.386719 67.867188 100.617188 67.15625 L 133.492188 48.179688 "/>
  <path style=" stroke:none;fill-rule:nonzero;fill:rgb(47.799683%,75.698853%,25.898743%);fill-opacity:1;" d="M 430.753906 131.554688 C 429.621094 131.554688 428.492188 131.257813 427.503906 130.683594 L 417.148438 124.558594 C 415.601563 123.691406 416.359375 123.386719 416.867188 123.207031 C 418.929688 122.492188 419.347656 122.328125 421.550781 121.082031 C 421.777344 120.953125 422.082031 121 422.320313 121.140625 L 430.273438 125.859375 C 430.5625 126.019531 430.96875 126.019531 431.234375 125.859375 L 462.242188 107.964844 C 462.53125 107.796875 462.714844 107.464844 462.714844 107.125 L 462.714844 71.339844 C 462.714844 70.988281 462.53125 70.660156 462.234375 70.484375 L 431.238281 52.601563 C 430.953125 52.433594 430.570313 52.433594 430.28125 52.601563 L 399.292969 70.488281 C 398.992188 70.660156 398.804688 71 398.804688 71.339844 L 398.804688 107.125 C 398.804688 107.464844 398.992188 107.789063 399.292969 107.953125 L 407.785156 112.859375 C 412.394531 115.164063 415.21875 112.453125 415.21875 109.722656 L 415.21875 74.390625 C 415.21875 73.894531 415.617188 73.5 416.117188 73.5 L 420.050781 73.5 C 420.542969 73.5 420.949219 73.894531 420.949219 74.390625 L 420.949219 109.722656 C 420.949219 115.875 417.597656 119.402344 411.765625 119.402344 C 409.976563 119.402344 408.5625 119.402344 404.625 117.460938 L 396.492188 112.78125 C 394.484375 111.617188 393.242188 109.449219 393.242188 107.125 L 393.242188 71.339844 C 393.242188 69.011719 394.484375 66.84375 396.492188 65.6875 L 427.503906 47.769531 C 429.464844 46.65625 432.070313 46.65625 434.019531 47.769531 L 465.027344 65.6875 C 467.035156 66.847656 468.28125 69.011719 468.28125 71.339844 L 468.28125 107.125 C 468.28125 109.449219 467.035156 111.613281 465.027344 112.78125 L 434.019531 130.683594 C 433.027344 131.257813 431.902344 131.554688 430.753906 131.554688 "/>
  <path style=" stroke:none;fill-rule:nonzero;fill:rgb(47.799683%,75.698853%,25.898743%);fill-opacity:1;" d="M 440.332031 106.898438 C 426.761719 106.898438 423.921875 100.671875 423.921875 95.445313 C 423.921875 94.949219 424.320313 94.554688 424.816406 94.554688 L 428.824219 94.554688 C 429.273438 94.554688 429.648438 94.875 429.714844 95.3125 C 430.320313 99.394531 432.125 101.453125 440.332031 101.453125 C 446.863281 101.453125 449.644531 99.976563 449.644531 96.511719 C 449.644531 94.511719 448.859375 93.027344 438.703125 92.035156 C 430.222656 91.195313 424.972656 89.320313 424.972656 82.535156 C 424.972656 76.277344 430.246094 72.546875 439.089844 72.546875 C 449.023438 72.546875 453.9375 75.992188 454.5625 83.390625 C 454.585938 83.644531 454.492188 83.890625 454.324219 84.082031 C 454.152344 84.257813 453.917969 84.367188 453.667969 84.367188 L 449.644531 84.367188 C 449.226563 84.367188 448.859375 84.070313 448.773438 83.667969 C 447.808594 79.371094 445.460938 78 439.089844 78 C 431.957031 78 431.128906 80.484375 431.128906 82.34375 C 431.128906 84.601563 432.105469 85.257813 441.734375 86.53125 C 451.265625 87.792969 455.792969 89.578125 455.792969 96.273438 C 455.792969 103.03125 450.15625 106.898438 440.332031 106.898438 "/>
  <path style=" stroke:none;fill-rule:evenodd;fill:rgb(47.799683%,75.698853%,25.898743%);fill-opacity:1;" d="M 331.75 81.648438 C 331.984375 81.511719 332.277344 81.511719 332.511719 81.648438 L 338.824219 85.289063 C 339.058594 85.425781 339.203125 85.675781 339.203125 85.949219 L 339.203125 93.238281 C 339.203125 93.511719 339.058594 93.761719 338.824219 93.898438 L 332.511719 97.539063 C 332.277344 97.675781 331.984375 97.675781 331.75 97.539063 L 325.445313 93.898438 C 325.210938 93.761719 325.0625 93.511719 325.0625 93.238281 L 325.0625 85.949219 C 325.0625 85.675781 325.210938 85.425781 325.445313 85.289063 L 331.75 81.648438 "/>
  <g clip-path="url(#clip2)" clip-rule="nonzero">
  <path style=" stroke:none;fill-rule:nonzero;fill:rgb(47.799683%,75.698853%,25.898743%);fill-opacity:1;" d="M 482.789063 57.050781 L 483.832031 57.050781 C 484.683594 57.050781 484.84375 56.453125 484.84375 56.105469 C 484.84375 55.1875 484.210938 55.1875 483.863281 55.1875 L 482.789063 55.1875 Z M 481.523438 54.109375 L 483.832031 54.109375 C 484.621094 54.109375 486.171875 54.109375 486.171875 55.882813 C 486.171875 57.117188 485.382813 57.367188 484.90625 57.527344 C 485.824219 57.589844 485.886719 58.191406 486.011719 59.042969 C 486.078125 59.582031 486.171875 60.5 486.359375 60.816406 L 484.9375 60.816406 C 484.90625 60.5 484.683594 58.789063 484.683594 58.695313 C 484.59375 58.316406 484.464844 58.128906 483.988281 58.128906 L 482.820313 58.128906 L 482.820313 60.816406 L 481.523438 60.816406 Z M 478.757813 57.445313 C 478.757813 60.230469 481.003906 62.476563 483.753906 62.476563 C 486.535156 62.476563 488.78125 60.183594 488.78125 57.445313 C 488.78125 54.664063 486.503906 52.453125 483.753906 52.453125 C 481.03125 52.453125 478.757813 54.632813 478.757813 57.445313 Z M 489.742188 57.464844 C 489.742188 60.75 487.054688 63.441406 483.769531 63.441406 C 480.511719 63.441406 477.792969 60.785156 477.792969 57.464844 C 477.792969 54.082031 480.574219 51.484375 483.769531 51.484375 C 486.992188 51.484375 489.742188 54.082031 489.742188 57.464844 "/>
  </g>
  </g>
</symbol>


<symbol id="mssql" viewBox="0 0 2499.72 2021" >
><polygon points="1605.64 1353.58 1605.64 1353.58 1605.64 1353.58 1605.64 1353.58" style="fill:#231f1f"/><path d="M192.72,1356.15a10.57,10.57,0,0,0,7.34,2.93h0a9.94,9.94,0,0,0,7.34-2.93,10.19,10.19,0,0,0,3.23-7.33,9.23,9.23,0,0,0-3.2-7.34,10.28,10.28,0,0,0-7.4-2.94,10.08,10.08,0,0,0-7.34,2.94,10.31,10.31,0,0,0-3.22,7.34A8.83,8.83,0,0,0,192.72,1356.15Z" transform="translate(-0.14 0)" style="fill:#231f1f"/><path d="M836.78,1411.45c5.14,5.13,11.81,7.7,19.8,7.7v.07c8,0,14.67-2.56,20.17-8.06a26.74,26.74,0,0,0,8.29-19.81,26.26,26.26,0,0,0-8.29-19.8,27.58,27.58,0,0,0-19.8-7.7c-8.07,0-14.74,2.57-20.17,8s-8,12.11-8,19.81C828.79,1399.71,831.35,1406.39,836.78,1411.45Zm2.2-37.7c4.77-4.77,10.56-7,18-7a24.42,24.42,0,0,1,24.94,24.57,24.67,24.67,0,0,1-7.33,17.9,24,24,0,0,1-17.61,7c-7.08,0-12.83-2.2-17.6-7a24.63,24.63,0,0,1-7.33-17.9C832,1384.31,834.22,1378.52,839,1373.75Z" transform="translate(-0.14 0)" style="fill:#231f1f"/><path d="M850.2,1393.92h3.85c2.28,0,4.51,2.2,6.42,6.38l3.85,8.65h6l-4.76-9.61c-2-3.84-3.85-6.08-6.09-6.71,2.82-.66,5.06-1.61,6.67-3.52a8.82,8.82,0,0,0,2.2-6.42,8.15,8.15,0,0,0-2.86-6.74c-2.2-1.84-5.72-2.83-10.27-2.83H845.07V1409h5.13Zm.56-16.65h4.54c3.23,0,5.5.66,6.75,1.61s1.54,2.21,1.54,4.48c0,4.14-2.57,6.09-7.33,6.09h-5.5Z" transform="translate(-0.14 0)" style="fill:#231f1f"/><path d="M2491.24,1641.09h0a27.45,27.45,0,0,0-19.8-7.7c-8.07,0-14.74,2.57-20.17,8.07a26.88,26.88,0,0,0-8,19.81c0,8,2.57,14.66,8,19.8s12.1,7.7,20.17,7.7,14.67-2.57,20.17-8a27,27,0,0,0,8.25-19.8C2499.57,1652.89,2496.67,1646.22,2491.24,1641.09Zm-2.52,37.77c-4.77,4.76-10.57,7-17.61,7a23.91,23.91,0,0,1-17.6-7,24.88,24.88,0,0,1-7.33-18,23.65,23.65,0,0,1,7-17.6c4.76-4.77,10.52-7,17.89-7a23.89,23.89,0,0,1,17.61,7,24.22,24.22,0,0,1,7.33,17.6C2496.05,1668.3,2493.85,1674,2488.72,1678.86Z" transform="translate(-0.14 0)" style="fill:#231f1f"/><path d="M2474.42,1662.52a13.82,13.82,0,0,0,6.63-3.5,8.8,8.8,0,0,0,2.2-6.45,8.16,8.16,0,0,0-2.86-6.72c-2.2-1.83-5.75-2.82-10.26-2.82h-10.2v35.79h5.14v-15h3.19c2.2,0,4.4,2.2,6.38,6.38l3.81,8.62h6.09l-4.76-9.61C2478.16,1665.09,2476.31,1663.19,2474.42,1662.52Zm-3.63-3.2h-5.47v-12.1h4.51c3.19,0,5.43.59,6.71,1.58s1.58,2.2,1.58,4.47C2478.12,1657.41,2475.55,1659.32,2470.79,1659.32Z" transform="translate(-0.14 0)" style="fill:#231f1f"/><polygon points="2470.68 1659.31 2470.68 1659.31 2470.68 1659.31 2470.68 1659.31" style="fill:#231f1f"/><path d="M1694.88,643.52l-276.05,90.14-240.17,106-67.19,17.74c-17.11,16.27-35.06,32.76-54.46,49.45-21.29,18.36-41.11,35.06-56.34,47.16-16.9,13.35-41.94,38.39-54.67,54.25-19,23.78-34,49-40.48,68.44-11.48,35.06-5.84,70.53,16.28,103.29,28.37,41.73,84.92,84.29,150.86,113.3,33.59,14.82,90.14,33.8,132.7,44.44,70.74,18,207.62,37.35,283,40.28,15.23.62,35.68.62,36.51,0,1.67-1,13.36-23.37,26.92-51.12,46.32-94.53,79.71-183.21,97.86-259,10.85-45.91,19.41-107,25-179.45,1.46-20.24,2.08-88,.83-111-1.88-37.56-5.22-68-10.43-97.86-.83-4.38-1-8.35-.63-8.55.84-.63,3.34-1.46,37.35-11.27l-6.88-16.28Zm-63,36.93c2.5,0,9.18,64.06,10.85,104.54.41,8.56.2,14.19-.21,14.19-1.67,0-35.27-19.82-59.26-34.84-20.87-13.15-60.51-39.44-66.77-44.45-2.09-1.46-1.88-1.67,15.23-7.51C1560.71,702.57,1629.57,680.45,1631.87,680.45Zm-140.64,46.33c1.88,0,6.68,2.71,18.15,9.8,43,26.92,101.41,59.47,126.45,70.32,7.72,3.34,8.55,2.09-9.18,14.19-38,25.88-85.34,51.33-143.35,77-10.23,4.59-18.78,8.13-19,8.13-.41,0,.84-5.21,2.5-11.47,14-52,21.91-104.54,22.33-146.69.21-20.87.21-20.87,2.09-21.49-.42.21-.21.21,0,.21Zm-29,11.05c1.25,1.25.41,48-1.26,60.72a529.79,529.79,0,0,1-19.19,90.77c-2.3,7.72-4.39,14.19-4.8,14.61-.84,1-29.42-26.92-38.81-37.77-16.28-18.78-29-37.56-38.4-55.92-4.8-9.39-12.31-27.75-11.68-28.38,3.34-2.29,113.3-44.86,114.14-44Zm-136.47,53.63a.77.77,0,0,1,.63.21,39.47,39.47,0,0,1,3.13,7.51c6.67,18.15,21.7,44.86,34.64,62,14.18,18.78,32.76,38.81,48.19,52,5,4.17,9.6,8.13,10.23,8.76,1.25,1.25,1.67,1-32.34,14-39.44,15-82.42,30-131.67,45.91q-17.64,5.68-35.26,11.47c-1.88.63-1.25-.41,4.17-9,24.42-38.18,61.56-113.09,82.42-166.09,3.55-9.18,7.1-18.36,7.73-20.45.83-2.92,1.87-4,4.58-5.43a20.59,20.59,0,0,1,3.55-.83ZM1284,808.78c.63.42-10,22.74-20.45,43.19-20.24,39.44-42.36,78.25-72,125.41-5,8.13-9.8,15.65-10.43,16.48-1,1.46-1.46,1-4.8-5.42-7.09-14-12.94-31.93-16.07-48.41-3.13-16.28-2.5-44.66,1-62.18,2.71-12.94,2.5-12.73,8.76-15.86,26.71-13.56,113.1-54,113.93-53.21ZM1644,823.39v8.76c0,46.53-5,110.38-12.31,156.91-1.26,8.14-2.3,14.82-2.51,15,0,0-6.05-1.67-13.14-3.76a539.36,539.36,0,0,1-96-41.1c-20.24-11.06-49.66-29.22-48.82-30.05.2-.21,9-4.8,19.19-10.23,40.9-21.28,80.13-44.23,114.14-67,12.73-8.55,31.92-22.32,36.1-26.08l3.34-2.5Zm-517.48,61.76c.84,0,.63,1.67-.63,9.18-.83,5.42-1.87,15.44-2.29,22.32-1.67,30.47,3.34,53,18.36,83.89,4.18,8.55,7.52,15.65,7.31,15.85-1.47,1.26-139.6,41.74-183,53.63-12.94,3.55-24.2,6.68-25,6.88-1.46.42-1.67.22-1-3.34,4.8-30.67,28.17-70.73,60.72-104.53,21.7-22.54,39-35.68,68.65-52.59,21.28-12.1,54-30.25,56.54-31.08,0-.21.21-.21.42-.21ZM1452,943.36c.21-.2,5.22,2.51,11.27,6.06,44.65,25.87,106.83,49.87,159.83,62.18l4.8,1-6.68,3.75c-27.75,15.45-118.93,53.42-212.2,88.27-13.57,5-26.92,10-29.43,11.06s-4.8,1.67-4.8,1.46,3.76-7.52,8.56-16.49c26.08-48.82,52.37-108.29,65.73-149.61,1.67-4,2.71-7.51,2.92-7.72Zm-33.17,10.85c.21.22-1.46,4.6-3.55,9.6-18.15,44-42,92-72.41,145.86-7.72,13.77-14.19,24.83-14.4,24.83s-6.47-3.76-14-8.35c-44.23-27.12-83.46-60.51-109.12-92.85l-3.76-4.59,19-5.22c68-18.57,125.83-38.6,183.21-63.22C1411.94,956.93,1418.62,954.21,1418.83,954.21Zm206.15,72h0c.21,4.8-10.43,47.79-19.2,78.87-7.3,26.09-13.56,46.54-25,82.63-5,15.87-9.38,29-9.59,29a13.76,13.76,0,0,1-2.72-.63c-62-11.27-117.47-26.92-169.64-47.78-14.6-5.84-35.47-15.23-36.72-16.28-.42-.42,12.1-6.26,28-13.14,94.94-41.53,193.43-88.68,227.23-108.92,4-2.51,7.09-3.76,7.72-3.76ZM1149,1042.48c.42.42-26.08,38.6-63.23,90.56-12.93,18.15-28,39.43-33.59,47.36s-14.19,20.45-19,28l-8.77,13.57-9.39-7.93c-11.06-9.18-30.25-28.8-38.8-39.65-18-22.32-30-45.9-34.85-67.39-2.3-10-2.3-15-.21-15.65,3.13-.84,58.84-14,111-26.09,29-6.67,62.59-14.6,74.7-17.52s21.91-5.22,22.12-5.22Zm26.71,10.22,6.67,7.51c30,33.6,60.72,58.43,97.86,80.13,6.68,3.76,11.69,7.09,11.27,7.31-1.46,1-129,46.31-188,66.76-33.18,11.69-60.51,21.08-60.72,21.08a35.72,35.72,0,0,1-4.18-2.71l-3.75-2.72,6-8.76c19.61-28.38,44.24-59.47,97.86-124.15l36.94-44.45Zm166.51,119.15c.2-.21,9.39,3.13,20.65,7.3,27.13,10.23,48.62,16.69,77.42,24,35.47,9,86.8,17.73,117.06,20.24,4.59.41,7.09.83,6.26,1.46-1.47.83-32.14,11.06-54.67,18.15-35.9,11.27-145.44,43.61-234.75,69.28-16.48,4.8-30.67,8.76-31.5,9-2.09.42-9-1.46-9-2.3,0-.41,5-6.88,11.06-14a1238.24,1238.24,0,0,0,84.72-113.92c6.88-10.44,12.73-19,12.73-19.2Zm-36.73,1c.21.21-14.6,24-40.48,64.89-11.06,17.32-23.37,36.94-27.75,43.82-4.17,6.68-10.43,17.11-14,23l-6,10.65-3.13-.84c-7.51-2.08-60.3-20.66-74.29-26.29a517.86,517.86,0,0,1-48.61-22.32c-16.7-9-37.56-22.33-35.89-22.75.41-.21,29-7.93,63.43-17.32,91.39-24.83,142.1-39.23,175.28-49.66,6-1.88,11.26-3.34,11.47-3.13Zm259.78,60.93h.21c.84,2.09-33,96-45.28,125.61-2.71,6.68-3.75,8.35-5.21,8.14-3.55-.21-52.58-7.09-82.43-11.48-51.95-7.92-139.17-23.16-161.08-28.16l-5-1,31.09-7.1c66.77-15,98.91-23.16,131.46-33.17a928.76,928.76,0,0,0,122.9-47.37c6.47-2.92,11.89-5.21,13.35-5.42ZM1410.27,0c-4.59-.62-78.67,26.08-126.45,45.49-64.48,26.29-114.55,51.33-145.43,73-11.48,8.14-25.88,22.54-28.17,28.17a19.6,19.6,0,0,0-1.25,7.09l28,26.5,66.56,21.29L1361.86,230,1543,261.05l1.88-15.65c-.63,0-1-.21-1.67-.21l-23.79-3.76-4.8-8.55c-24.62-43.41-51.75-97.24-67.6-133.55-12.31-28.17-24-60.71-30.47-84.09-3.55-14.18-4-15-6.25-15.23h0Zm-3.34,10.64h.21c.21.21,1,6.06,1.88,12.94,3.54,29.21,10,57.38,20.24,87.85,7.72,22.95,7.72,21.7-1.25,19-21.29-5.84-116.64-22.32-185.71-31.92-11.06-1.46-20.45-2.92-20.45-3.13-.83-.83,49.87-27.34,72.2-37.77,28.58-13.14,107-45.9,112.88-46.95Zm-201.15,93.48,8.14,2.71c44.24,15,155.45,36.31,216.8,41.32,6.88.63,12.73,1.25,12.93,1.25.21.21-5.63,3.34-13.14,6.89-29.63,14.81-62.18,33-84.72,46.95-6.67,4.17-12.73,7.51-13.56,7.51s-5.21-.84-9.8-1.46l-8.35-1.26-20.86-20.45c-36.73-35.67-65.53-63.22-76.58-73.65Zm-8.34,6.47,29.42,36.73c16.06,20.24,32.34,40.06,35.89,44.44s6.47,7.93,6.26,8.14c-.84.62-42.57-7.52-64.69-12.52-22.74-5.22-32.13-7.72-46.11-12.1l-11.48-3.76v-2.92c.21-14,18-34.85,48-56.13l2.71-1.88Zm250,50.08c.84,0,1.88,1.88,4.38,7.51,7.1,15.65,29.22,57.8,34.64,65.94,1.67,2.71,4.59,2.92-24.83-1.88-70.73-11.48-93.48-15.23-93.48-15.65a21.6,21.6,0,0,1,4.8-3.13,406.75,406.75,0,0,0,63.64-44c4.8-4,9.18-7.72,10-8.34.2-.42.62-.63.83-.42Zm-1099.9,1324h-16V1385h16v20.43h.36c2.24-7.34,6.05-13.1,10.82-16.87a24.33,24.33,0,0,1,15.4-5.5c4.14,0,7.33.33,9.53,1.28V1401c-2.82-2.24-6.67-3.23-12.1-3.23q-9.62,0-16.32,8.66c-4.76,6.38-7.33,15.66-7.33,27.14h-.33Zm92.12,1.94v0h0c15,0,27.14-4.84,36.12-14.45s13.42-22.37,13.42-38.36c0-16.32-4.1-28.79-12.47-38.07s-19.8-13.75-34.84-13.75-27.13,4.48-36.12,13.13c-9.6,9.54-14.67,23-14.67,40.27,0,15,4.11,27.5,12.77,36.78C412.78,1481.86,424.63,1486.66,439.63,1486.66Zm-22.74-81.23q9.14-9.62,24-9.61c10.27,0,18,3.2,23.69,9.61,5.75,6.72,8.62,16.29,8.62,29.08,0,12.18-2.57,21.75-8,28.17-5.42,6.71-13.42,10.26-24,10.26-10.27,0-18.23-3.55-24.32-10.26s-8.94-16-8.94-28.17C407.32,1422.41,410.51,1412.51,416.89,1405.43Zm1188.63-24.89H1601V1340.2h6.45l12.47,28.16a30.25,30.25,0,0,1,1.83,4.77h.37c.62-2.2,1.61-4.14,1.91-5.14l12.46-27.79h5.76v40.26h-4.77v-27.13c0-1.95,0-4.51.3-7.7-.62,1.64-.92,2.89-1.29,3.84l-13.79,31h-2.2l-13.75-30.73a23,23,0,0,1-1.25-4.14,63.75,63.75,0,0,1,.26,7.95l-.26,0ZM775,1398H757.79V1384.6H775v-24.27c5.1-1.61,10.49-3.23,16-5.13v29.41h25.3V1398H791v56.29c0,6.67,1.28,11.52,3.55,14.37s6.06,4.19,11.48,4.19a16.71,16.71,0,0,0,10.27-3.23v13.71c-3.85,2.28-8.65,3.3-15,3.3-17.6,0-26.22-9.93-26.22-29.45l0,0Zm803.62-53.36H1566.8v-4.47H1595v4.47h-11.84v35.83h-4.47ZM531.6,1487.32c-9.24,0-17.6-1.9-24.57-6.09V1464a39.52,39.52,0,0,0,25.93,9.54c12.47,0,18.84-4.81,18.84-14.12a12.19,12.19,0,0,0-4.14-9.54c-2.89-2.57-8.32-5.75-16.32-9.28-8.35-3.48-14.37-7.37-17.89-11.18-4.18-4.47-6.38-10.56-6.38-17.9a25.55,25.55,0,0,1,9.9-20.75c6.38-5.46,15-8.29,25.3-8.29a46.82,46.82,0,0,1,21.46,4.77v16a37.69,37.69,0,0,0-22.74-7.08c-5.5,0-9.61,1.25-12.83,3.81a12.07,12.07,0,0,0-4.77,9.9,13.73,13.73,0,0,0,4.14,10.27c2.57,2.23,7.33,5.1,15,8.32,8.69,3.52,14.7,7,18.59,10.86a25,25,0,0,1,7.34,18.22,26.21,26.21,0,0,1-9.32,20.47h0l-.08,0C552.72,1483.8,543.44,1486.7,531.6,1487.32Zm177.82-88.88H692.55V1385h16.87v-16.36c0-11.22,3.56-19.51,10.27-25.89,5.76-5.43,12.8-8,21.41-8,4.81,0,8.66.3,11.52,1.58v14.41a22.12,22.12,0,0,0-10.49-2.57c-11.22,0-16.65,7-16.65,21v15.4h23.36v13.43H725.49v86.35h-16l-.11,0ZM193.05,1391h14.08v87H193.05Zm1923.67,242.47.11-.08h0a149,149,0,0,0-30.44,3.56c-65.82,17.24-102.9,80.31-100.37,145.22,0,54.28,10.53,81.19,36.75,109.65,53.72,44.11,102.31,47.67,168.21,24,11.15-4.76,23.29-10.19,23.29-10.19v-44.15L2191,1873.62c-53.18,23-93.15,23-125-4.18-20.54-20.75-29.45-45.4-33.6-74.19h198.25v-37.77C2230.55,1680.84,2184.19,1632.18,2116.72,1633.46Zm-80.15,122.44c.71-4.25,8.67-48.56,34.53-66.85a73.84,73.84,0,0,1,42.8-13.75,68.52,68.52,0,0,1,41.59,14.08c24.93,19.18,29.11,66.52,29.11,66.52ZM1681,1636.69h22.73v48.55l-17.6-5.13c-26.22-7.34-53.36,8-69.13,38.72-11.44,22.4-12.46,32-12.46,113.86v89.55h-49.22V1642.07h49.25v46.72l11.52-18c14.67-22.69,36.45-34.21,64.91-34.21h0Zm725.24-.74h22.74v48.66l-17.6-5.13c-26.22-7.37-53.36,8-69.12,38.69-11.49,22.37-12.48,32-12.48,113.83v89.55h-49.21v-280.1h49.25v46.65l11.52-17.9c14.41-22.7,36.45-34.25,64.91-34.25Zm-472,5.83h48.59l-56.29,141.63-55.27,138.76c-15.66,0-31.35.37-47,0-36.12-92.08-72-187.06-104.88-280.42h50.83l40,118.66,39.35,107.08L1890.42,1761h0l0,0C1912.75,1698,1934.21,1641.78,1934.21,1641.78Zm-1715,201.69c-7,62.34-81.52,100.74-163.37,84.42-33-6.38-55-15.62-55-15.62s-1.32-39,1.25-55.38c.66,0,13.13,6.13,27.87,13.46,71.62,36.13,141,16,141-41.55,0-27.86-22.36-53.43-73-82.87C7.9,1693.49-17,1646.48,11.13,1584.13c19.17-42.24,60.1-63,123.39-62,41.26.66,70,13.13,70,13.13l-.37,51.19c-52.07-28.79-146.1-39.31-154.39,36.78-2.89,27.5,20.8,50.83,74.19,83.17h0v0C204.2,1754.25,225.36,1785,219.24,1843.47ZM280,1487c-14.08,0-25.56-4.84-34.54-14.37-8.62-9.28-12.77-21.42-12.77-35.87,0-16.24,4.77-29.7,14-39.6s21.78-15,37.77-15c8.66,0,16.32,1.61,23,5.13v16.32a40.92,40.92,0,0,0-23.69-7.7q-15.28,0-24.94,10.56c-6.67,7.33-9.9,16.94-9.9,29,0,11.55,3.23,20.84,9.28,27.51s14.42,10.27,24.68,10.27c8.58,0,16.87-2.87,24.57-8.62v15.33C299.84,1484.39,290.93,1486.66,280,1487Zm169.49,35.12v0h0c-3.85,0-7.7.37-11.51.37-77.75,4.14-130.18,38.36-160.84,105.18-26.22,60.43-23.36,139.42.29,200.22,27.51,59.4,71.95,90.76,146.14,102.6,15.69,2.57,26.22,11.19,56.62,46.68l37.4,43.83h67.84l-45.11-45.48c-24.93-24.93-45.1-46.64-45.1-48.55s9.54-6.09,21.08-9.61c38.07-11.52,69.68-40.92,91.79-86,17.9-36.2,20.47-47.38,23-92.41C637.88,1604.92,567.21,1521.13,449.53,1522.08Zm59.52,350.51,0,0c-33,16-80.93,19.17-112.21,7.7-32.34-11.88-63.66-45.47-77.75-83.5-15.65-41.59-13.42-118.3,4.48-152.85,28.79-55,66.85-80.31,122.48-80.31,82.51,0,129.45,50.54,135.58,145.51C586.43,1788.47,559.88,1848,509.05,1872.59ZM30.37,1484.46H14.68V1344.74H36.42l42.84,98.17a112.68,112.68,0,0,1,6.38,16.58h.66c2.86-7.63,5.1-13.39,6.71-17.24l43.82-97.18h20.46v139.72H141v-94c0-7.37.33-16.61,1.28-27.25h-.37a97,97,0,0,1-4.14,13.46L90.08,1484.46h-8L34.41,1378a82,82,0,0,1-4.14-14.45H30c.3,5.46.66,14.74.66,27.21l-.26.07ZM1391.58,1634h0a141.7,141.7,0,0,0-30.07,3.53c-65.9,17.23-103,80.3-100.78,145.21,0,54.35,10.56,81.52,36.79,110,53.72,44.07,102.31,47.59,167.88,23.94,11.18-4.76,23.36-10.26,23.36-10.26V1862.4l-23.36,12.1c-53.07,23.1-93,23.1-125-4.11-20.42-20.79-29.41-45.73-33.55-74.18h198.57v-37.78C1505.41,1681.42,1459.06,1632.8,1391.58,1634Zm-80.27,122.85h0Zm.06-.36c.73-4.42,8.65-48.63,34.48-66.53a74.29,74.29,0,0,1,42.83-13.71,68.53,68.53,0,0,1,41.59,14c24.94,19.17,29.12,66.19,29.12,66.19ZM635.38,1382l-.07,0h0c-15,0-27.14,4.48-36.12,13.13-9.54,9.54-14.67,23-14.67,40.27,0,15,4.15,27.51,12.76,36.78,9,9.61,20.79,14.41,35.83,14.41,15.4,0,27.14-4.83,36.12-14.45s13.46-22.36,13.46-38.35c0-16.32-4.18-28.79-12.47-38.07C661.57,1386.51,650.05,1382,635.38,1382Zm23,80.64c-5.43,6.71-13.42,10.27-24,10.27-10.27,0-18.22-3.56-24.31-10.27s-8.95-16-8.95-28.16c0-12.84,3.19-22.74,9.61-29.42,6-6.38,14-9.6,24-9.6s17.86,3.22,23.62,9.6c5.13,7,8,16.62,8,29.42h0C666.33,1446.69,663.77,1456.26,658.34,1462.68ZM1228.8,1844c-7,62.34-81.52,100.7-163.44,84.34-32.9-6.71-54.64-15.62-54.64-15.62s-1.33-39.06,1.24-55.37c.74,0,13.2,6,27.87,13.38,71.62,36.46,141,16,141-41.55,0-27.86-22.36-53.09-72.9-82.51-89.84-52.44-115.11-99.45-87-161.79,19.21-42.24,60.13-63,123.43-62,41.26.59,70,13.06,70,13.06l-.36,51.19c-52.08-28.79-146.1-39.35-154.39,36.78-2.86,27.5,20.76,50.9,74.15,83.17h0v.07C1213.77,1755,1234.89,1785.71,1228.8,1844Zm-486.63,31.54H901.33v46.68H692.52V1526.92h49.65v178.45h0Z" transform="translate(-0.14 0)" style="fill:#231f1f"/><path d="M1111.68,143.78s-4.59,7.3-.21,18.15c2.71,6.68,10.64,14.82,19.61,23.16,0,0,92.86,90.56,104.12,103.5,51.33,59.26,73.66,117.68,75.75,198.23,1.25,51.74-8.56,97.23-33,150-43.4,94.74-135,199.28-276.27,315.29l20.66-6.88c13.35-10,31.51-20.66,74.07-44,98.28-53.84,208.87-103.29,344.5-154.2,195.3-73.45,516.44-159.42,699.22-187.38l19-2.92-2.92-4.59c-16.69-25.88-28.17-41.94-41.95-59.05-40.06-49.67-88.67-89.94-148.14-123.32-81.8-45.7-187.59-81.38-321.55-107.88-25.24-5-80.75-14.61-125.82-21.49-95.57-14.81-157.33-25-225.35-36.72-24.41-4.18-60.93-10.44-85.14-15.65-12.52-2.72-36.51-8.35-55.29-14.82-15-5.84-36.72-11.69-41.31-29.42Zm53.83,52.16c.21-.2,3.55,1.05,7.93,2.51,7.93,2.71,18.15,5.84,30.26,9.18q13.74,3.78,27.54,7.3c12.52,3.13,23,6,23.16,6,1.46,1.46,22.54,68.86,29.63,94.73,2.71,9.81,4.8,18.15,4.59,18.15-.21.22-2.5-3.33-5.21-8.13-24.42-43-63-86.6-107.67-121.65a88.87,88.87,0,0,1-10.23-8.14Zm102.66,28.38a82.16,82.16,0,0,1,11.27,1.88c35.47,7.93,99.11,20,139.8,26.92,6.89,1,12.31,2.29,12.31,2.71s-2.5,1.88-5.63,3.55c-6.89,3.54-34.64,20-43.82,26.29-23.16,15.44-44,32.13-59,47.15-6,6.06-11.27,11.06-11.27,11.06s-1.25-3.54-2.3-7.93c-7.5-29-23.15-72-37.34-102.24a88.87,88.87,0,0,1-4.18-9.6c0,.42,0,.21.21.21Zm180.7,34.43c1.25.42,3.34,7.51,7.51,23.16a341.75,341.75,0,0,1,10,95.57c-.42,8.76-.84,16.9-1.25,17.94l-.63,2.09L1453.67,394c-22.33-7.09-58.63-17.74-89.72-26.5-17.74-4.8-32.13-9.18-32.13-9.6,0-1.25,25.87-27.12,36.93-36.93,21.07-18.57,78.24-62.81,80.12-62.18Zm14.4,2.09c.63-.63,86.39,14.18,125.4,21.7,29,5.63,71.16,14.39,73.66,15.44,1.25.41-3.13,2.92-17.11,9.18-55.09,24.83-96,47.15-136.67,74.28-10.64,7.1-19.62,12.94-19.82,12.94s-.42-6.05-.42-13.36c0-39.64-7.93-79.7-22.54-113.51C1464.31,264.18,1463.06,261.05,1463.27,260.84Zm221.8,43.82c.63.62-2.08,17.52-4.59,27.54-7.51,31.09-27.75,77.21-52.57,120.6-4.39,7.73-8.35,14-8.77,14.19s-6.05-2.92-12.52-6.68c-24.21-14.18-51.75-27.54-81.8-40.06-8.34-3.54-15.64-6.47-15.85-6.88-1.47-1.26,65.72-45.7,101.2-67,28.17-17.11,74.07-42.57,74.9-41.73Zm15.86,2.5c1.88,0,39.86,10.43,59.68,16.28,49,14.6,105.37,35.26,142.09,51.95l15.23,6.89-10.63,2.5c-89.72,20.66-166.51,44.45-240.59,74.49-6,2.51-11.48,4.59-11.89,4.59s1.67-4.79,4.38-10.64c22.33-47.36,36.73-96.82,40.27-139,.21-4,.83-7.09,1.46-7.09ZM1322.84,394c.63-.62,29.63,6.26,45.28,10.64,23.79,6.68,74.28,23.58,74.28,24.83,0,.21-5.63,5-12.31,10.86C1402.76,463,1376.47,487,1345,517.49c-9.39,9-17.32,16.28-17.74,16.28s-.62-1.26-.41-2.93c4.79-35.05,3.75-80.12-2.92-125.82C1323.26,399.18,1322.63,394.17,1322.84,394Zm609.5.63c.41.41-13.36,22.12-22.12,34.43-12.52,17.94-30.89,41.73-72.41,93.9-21.9,27.54-46.53,58.63-54.66,69.06-8.35,10.43-15.24,19.2-15.45,19.2a71.61,71.61,0,0,1-5.84-8.35,431.17,431.17,0,0,0-84.51-93.27c-6.26-5.22-13.14-10.85-15.44-12.52a23.27,23.27,0,0,1-4.17-3.55c0-.62,35.47-15.86,62.39-26.71,47.16-19.19,111.42-42.14,159.62-57,25.25-7.93,52.17-15.65,52.59-15.23Zm16.06,4.17c.84-.21,5.85,2.3,11.9,5.84,50.7,29,100.36,66.36,139.59,104.75,11.06,10.85,38.39,39.23,38,39.44,0,0-9.59.83-20.86,1.67-87.85,6.68-200.31,25.24-308.4,51.32-7.3,1.67-13.77,3.13-14.19,3.13s7.72-8.13,17.95-17.94c63.43-61.14,92.44-99.74,126.66-168.6,4.79-10.22,9-19,9.38-19.61Zm-464.68,47.58c2.92.62,30,13.35,50.49,23.57,18.78,9.39,47,24.42,48.41,25.67.21.21-9.81,5.42-22.11,11.48-39.23,19.61-72.83,38.18-107.88,59.46-10,6.05-18.36,11.06-18.57,11.06-.84,0-.63-.83,5-11.06,18.78-34.22,33.8-75.11,42.35-115,.84-3.13,1.67-5.21,2.3-5.21Zm-27.13,5c.63.63-6.47,26.29-10.85,40.27a513,513,0,0,1-36.93,84.72c-3.34,5.84-8.35,14.4-11.06,19.19l-5.22,8.35-11.68-11.26c-13.56-13.15-24.62-21.29-38.81-28.59-5.64-2.92-10-5.43-10-5.84,0-1.67,35.68-34,63-57.38,19.61-16.91,60.93-50.08,61.55-49.46Zm165.89,68.24,10.22,6.67a792.92,792.92,0,0,1,72,53.21c11.89,9.8,34.84,30.47,39.44,35.47l2.5,2.72-16.9,4.8c-95.57,26.49-169.43,50.07-255.61,81.79-9.6,3.55-17.74,6.47-18.37,6.47-1.24,0-2.29,1,19.2-18.78,55.09-50.7,103.92-106.63,140.22-161.09l7.31-11.26Zm-43.61,10.85c.41.41-28.17,40.68-45.28,63.43-20.45,27.12-56.76,72.61-81.8,102.24-10.43,12.31-19.4,22.53-19.82,22.74-.63.21-.83-2.92-.83-7.72,0-25.25-6.47-52.16-17.74-75.11-4.8-9.6-5.64-11.9-4.59-12.94,4-3.55,64.68-38.19,103.08-58.84,25.87-13.77,66.35-34.22,67-33.8Zm-263.75,64.68c.63,0,5.43,2.5,10.85,5.43a229.05,229.05,0,0,1,35.89,24.2c.42.42-5,4.8-12.1,10-19.82,14.19-49.87,36.94-67.4,50.92-18.36,14.61-19,15-16.9,11.89,13.77-21.07,20.66-33,28-48.2A387.71,387.71,0,0,0,1311,605.75c1.67-6,3.75-10.64,4.17-10.64Zm70.32,55.09c1-.21,2.3,1.67,7.93,10,11.89,17.74,21.07,41.53,23.37,60.72l.41,4.18-28.58,11.06c-51.12,19.82-98.28,39.43-130.21,54-9,4.17-24.62,11.68-34.84,16.69-10.22,5.22-18.57,9.18-18.57,9s6.47-5,14.39-10.85c62.4-45.27,116.44-94.94,156.92-144.6,4.38-5.22,8.35-10,8.76-10.22Zm-32.34,7.93c.83.83-22.95,27.75-39.23,44.23-40.27,41.11-80.13,73.24-129.58,104.54-6.26,4-11.89,7.51-12.52,7.93-1.46.84.42-1.25,22.12-24.83,13.77-14.82,24.2-27.34,36.1-42.77,7.93-10.23,9.39-11.69,20.87-19.83C1281.53,705.28,1352.26,657.29,1353.1,658.13Z" transform="translate(-0.14 0)" style="fill:#a91d22"/>
</symbol>

</defs>
</svg>
